<svg width="174" height="59" viewBox="0 0 174 59" fill="none" xmlns="http://www.w3.org/2000/svg">
<g style="mix-blend-mode:luminosity" opacity="0.1">
<path fill-rule="evenodd" clip-rule="evenodd" d="M5.77765 0.0991214C0.290799 1.1381 -1.87146 7.3062 1.87121 11.2428C6.02381 15.6104 13.4835 12.691 13.4835 6.69828C13.4835 2.7078 9.59359 -0.62335 5.77765 0.0991214ZM28.714 0.718206C26.6645 1.00356 27.2632 0.482622 13.7826 13.7106C6.04272 21.3055 1.34454 26.0171 1.0045 26.5255C-0.262342 28.4197 -0.307456 30.9518 0.891015 32.8972C1.7947 34.3643 25.8313 57.7847 27.0038 58.3406C31.3003 60.3777 36.348 56.7559 35.6512 52.1362C35.3487 50.1307 35.5705 50.39 26.3784 41.2986C16.6755 31.7019 17.1955 32.3539 17.1974 29.7882C17.1996 27.1955 16.7383 27.7741 26.4308 18.2088C33.7475 10.9879 34.7879 9.90922 35.1258 9.1917C37.1782 4.83648 33.5522 0.0446709 28.714 0.718206ZM43.5364 10.2669C42.0949 10.6123 41.5258 11.0144 39.0323 13.4498C37.1275 15.3099 36.5401 15.9732 36.1978 16.6488C33.6013 21.7733 39.0561 27.1707 44.3065 24.672C45.5841 24.0639 49.8067 19.9249 50.3742 18.7241C52.5463 14.1292 48.4682 9.0853 43.5364 10.2669ZM28.8801 24.1982C24.8188 25.3002 23.0856 30.1728 25.5858 33.4589C27.0787 35.4212 50.3378 57.9816 51.3794 58.4777C52.8074 59.158 55.2263 59.1763 56.6388 58.5176C59.7875 57.0494 61.0578 53.1446 59.3467 50.1933C58.8949 49.4142 34.7119 25.5466 33.7636 24.9438C32.3977 24.0757 30.4355 23.7763 28.8801 24.1982Z" fill="#B7016E"/>
<path d="M76.2051 29.8393V9.364H89.4108V12.219H79.332V18.3327H87.7636V21.0147H79.332V29.8393H76.2051ZM91.9823 29.8393V14.7568H95.0534V29.8393H91.9823ZM91.9823 12.2767V8.78723H95.0534V12.2767H91.9823ZM106.868 29.0606C106.608 29.1952 106.282 29.3394 105.891 29.4932C105.5 29.647 105.054 29.7816 104.551 29.8969C104.067 30.0123 103.565 30.07 103.044 30.07C102.411 30.07 101.824 29.9546 101.285 29.7239C100.745 29.4932 100.307 29.1279 99.9724 28.6281C99.656 28.109 99.4978 27.4457 99.4978 26.6382V17.208H97.5714V14.7568H99.4978V9.79658H102.569V14.7568H105.752V17.208H102.569V25.6289C102.606 26.148 102.764 26.5325 103.044 26.7824C103.341 27.0323 103.704 27.1573 104.132 27.1573C104.56 27.1573 104.97 27.0804 105.361 26.9266C105.752 26.7728 106.04 26.6478 106.226 26.5517L106.868 29.0606ZM131.331 29.8393H128.26V21.3896C128.26 19.9861 128.036 18.9576 127.59 18.3039C127.143 17.6502 126.492 17.3234 125.635 17.3234C124.779 17.3234 123.979 17.6599 123.234 18.3327C122.508 18.9864 121.997 19.842 121.699 20.8994V29.8393H118.628V21.3896C118.628 19.9861 118.404 18.9576 117.958 18.3039C117.511 17.6502 116.869 17.3234 116.031 17.3234C115.175 17.3234 114.375 17.6502 113.63 18.3039C112.904 18.9576 112.383 19.8131 112.067 20.8705V29.8393H108.996V14.7568H111.787V17.7848C112.364 16.7274 113.118 15.9199 114.049 15.3624C114.998 14.7856 116.078 14.4972 117.288 14.4972C118.497 14.4972 119.447 14.8241 120.135 15.4777C120.843 16.1314 121.28 16.9485 121.447 17.929C122.08 16.8139 122.853 15.968 123.765 15.3912C124.695 14.7952 125.756 14.4972 126.948 14.4972C127.804 14.4972 128.52 14.6607 129.097 14.9875C129.674 15.3143 130.121 15.7661 130.437 16.3429C130.754 16.9004 130.977 17.5541 131.108 18.3039C131.256 19.0345 131.331 19.8131 131.331 20.6398V29.8393ZM141.431 30.1277C140.277 30.1277 139.244 29.9258 138.332 29.5221C137.42 29.0991 136.629 28.5223 135.959 27.7917C135.307 27.0612 134.805 26.2345 134.451 25.3116C134.097 24.3696 133.921 23.3699 133.921 22.3124C133.921 21.255 134.097 20.2553 134.451 19.3133C134.805 18.3712 135.307 17.5445 135.959 16.8331C136.629 16.1026 137.42 15.5354 138.332 15.1317C139.262 14.7087 140.295 14.4972 141.431 14.4972C142.566 14.4972 143.59 14.7087 144.502 15.1317C145.433 15.5354 146.224 16.1026 146.875 16.8331C147.545 17.5445 148.057 18.3712 148.411 19.3133C148.764 20.2553 148.941 21.255 148.941 22.3124C148.941 23.3699 148.764 24.3696 148.411 25.3116C148.057 26.2345 147.545 27.0612 146.875 27.7917C146.224 28.5223 145.433 29.0991 144.502 29.5221C143.59 29.9258 142.566 30.1277 141.431 30.1277ZM137.075 22.3413C137.075 23.3026 137.271 24.1677 137.662 24.9367C138.053 25.7058 138.574 26.3114 139.225 26.7536C139.877 27.1958 140.612 27.4168 141.431 27.4168C142.231 27.4168 142.957 27.1958 143.609 26.7536C144.279 26.2921 144.809 25.6769 145.2 24.9079C145.591 24.1197 145.786 23.2545 145.786 22.3124C145.786 21.3512 145.591 20.486 145.2 19.717C144.809 18.948 144.279 18.3424 143.609 17.9002C142.957 17.4388 142.231 17.208 141.431 17.208C140.612 17.208 139.877 17.4388 139.225 17.9002C138.574 18.3616 138.053 18.9768 137.662 19.7458C137.271 20.4956 137.075 21.3608 137.075 22.3413ZM174 29.8393H170.929V21.3896C170.929 19.9861 170.706 18.9576 170.259 18.3039C169.812 17.6502 169.161 17.3234 168.305 17.3234C167.449 17.3234 166.648 17.6599 165.904 18.3327C165.178 18.9864 164.666 19.842 164.368 20.8994V29.8393H161.297V21.3896C161.297 19.9861 161.074 18.9576 160.627 18.3039C160.18 17.6502 159.538 17.3234 158.701 17.3234C157.844 17.3234 157.044 17.6502 156.3 18.3039C155.574 18.9576 155.052 19.8131 154.736 20.8705V29.8393H151.665V14.7568H154.457V17.7848C155.034 16.7274 155.788 15.9199 156.718 15.3624C157.668 14.7856 158.747 14.4972 159.957 14.4972C161.167 14.4972 162.116 14.8241 162.805 15.4777C163.512 16.1314 163.949 16.9485 164.117 17.929C164.75 16.8139 165.522 15.968 166.434 15.3912C167.365 14.7952 168.426 14.4972 169.617 14.4972C170.473 14.4972 171.19 14.6607 171.767 14.9875C172.344 15.3143 172.79 15.7661 173.107 16.3429C173.423 16.9004 173.647 17.5541 173.777 18.3039C173.926 19.0345 174 19.8131 174 20.6398V29.8393Z" fill="black"/>
<path d="M74.9336 43.8314C74.9336 43.0875 75.0607 42.3552 75.315 41.6346C75.5807 40.9023 75.9621 40.2398 76.4591 39.647C76.9562 39.0425 77.5629 38.5603 78.2794 38.1999C79.0075 37.8395 79.8339 37.6594 80.7584 37.6594C81.8563 37.6594 82.7924 37.9152 83.5668 38.4266C84.3412 38.9264 84.919 39.5715 85.3004 40.3618L84.5723 40.7803C84.2833 40.2107 83.9252 39.7574 83.4975 39.4204C83.0814 39.0833 82.6307 38.845 82.1453 38.7055C81.6599 38.5544 81.1745 38.4789 80.6891 38.4789C79.9147 38.4789 79.2213 38.6358 78.6088 38.9496C78.0078 39.2634 77.4993 39.6819 77.0832 40.2049C76.6672 40.728 76.3494 41.3091 76.1298 41.9484C75.9217 42.5878 75.8177 43.2329 75.8177 43.8837C75.8177 44.616 75.9448 45.3134 76.1991 45.9759C76.4534 46.6268 76.8002 47.208 77.2393 47.7194C77.69 48.2308 78.2101 48.6377 78.7995 48.9399C79.4005 49.242 80.0477 49.3932 80.7411 49.3932C81.2381 49.3932 81.7409 49.3117 82.2493 49.1491C82.7694 48.9747 83.2548 48.7132 83.7055 48.3645C84.1563 48.0041 84.5203 47.5393 84.7977 46.9697L85.5605 47.3358C85.2947 47.9518 84.896 48.4749 84.3643 48.905C83.8326 49.3351 83.2432 49.6604 82.596 49.8814C81.9489 50.1023 81.3075 50.2126 80.6718 50.2126C79.8396 50.2126 79.0711 50.0325 78.3661 49.6721C77.661 49.3003 77.0486 48.8121 76.5285 48.2076C76.02 47.5916 75.627 46.9057 75.3497 46.1503C75.0723 45.3831 74.9336 44.6102 74.9336 43.8314ZM87.7522 50.108V37.7292H88.6363V49.306H95.9868V50.108H87.7522ZM102.174 50.1952C101.192 50.1952 100.371 50.0208 99.7122 49.6721C99.0535 49.3234 98.5277 48.8527 98.1347 48.2599C97.7417 47.6554 97.4586 46.9814 97.2852 46.2374C97.1119 45.4935 97.0252 44.7323 97.0252 43.9535V37.7292H97.9093V43.9535C97.9093 44.6277 97.9787 45.2902 98.1173 45.941C98.256 46.5919 98.4814 47.1789 98.7934 47.702C99.1171 48.2133 99.5505 48.6203 100.094 48.9224C100.648 49.2246 101.336 49.3757 102.157 49.3757C102.989 49.3757 103.676 49.2188 104.22 48.905C104.774 48.5912 105.208 48.1785 105.52 47.6671C105.843 47.1441 106.069 46.563 106.196 45.9236C106.335 45.2728 106.404 44.616 106.404 43.9535V37.7292H107.288V43.9535C107.288 44.7786 107.196 45.5692 107.011 46.3246C106.837 47.0686 106.548 47.7311 106.144 48.3122C105.739 48.8933 105.213 49.3526 104.566 49.6896C103.919 50.0266 103.122 50.1952 102.174 50.1952ZM119.386 46.9C119.386 47.5044 119.236 48.0507 118.935 48.5389C118.646 49.0154 118.248 49.3989 117.739 49.6896C117.242 49.9685 116.687 50.108 116.075 50.108H110.319V37.7292H116.057C116.635 37.7292 117.132 37.8861 117.548 38.1999C117.976 38.5021 118.3 38.8973 118.519 39.3855C118.75 39.862 118.866 40.3618 118.866 40.8849C118.866 41.5009 118.71 42.0762 118.398 42.611C118.086 43.134 117.652 43.5176 117.098 43.7617C117.803 43.9709 118.357 44.3661 118.762 44.9472C119.178 45.5169 119.386 46.1677 119.386 46.9ZM118.502 46.7779C118.502 46.3363 118.398 45.9236 118.19 45.54C117.993 45.1565 117.722 44.8426 117.375 44.5986C117.028 44.3545 116.635 44.2324 116.196 44.2324H111.203V49.306H116.075C116.526 49.306 116.936 49.1897 117.306 48.9573C117.675 48.7132 117.964 48.3994 118.172 48.0158C118.392 47.6205 118.502 47.208 118.502 46.7779ZM111.203 38.5312V43.4827H115.711C116.161 43.4827 116.555 43.3664 116.89 43.134C117.236 42.8899 117.508 42.5818 117.704 42.21C117.901 41.8264 117.999 41.4254 117.999 41.0069C117.999 40.5536 117.907 40.1409 117.722 39.7691C117.537 39.3972 117.277 39.1008 116.942 38.8799C116.618 38.6475 116.242 38.5312 115.815 38.5312H111.203Z" fill="black"/>
</g>
</svg>
